<svg xmlns="http://www.w3.org/2000/svg" aria-hidden="true" style="position:absolute;width:0;height:0;overflow:hidden">
  <defs>
    <symbol id="icon-burger" viewBox="0 0 32 32">
      <path stroke-linecap="round" stroke-width="1.6" d="M8 9.6h16M8 16h16M8 22.4h16"/>
    </symbol>
    <symbol id="icon-menu-close-btn" viewBox="0 0 32 32">
      <path d="M14.869 16 8.235 9.367a.786.786 0 0 1-.174-.873.797.797 0 0 1 .434-.434.785.785 0 0 1 .613 0c.098.04.185.099.26.174l6.633 6.634 6.633-6.634a.802.802 0 0 1 1.367.566.798.798 0 0 1-.235.566l-6.634 6.633 6.634 6.633a.802.802 0 0 1-.566 1.367.798.798 0 0 1-.566-.235l-6.633-6.634-6.633 6.634a.802.802 0 0 1-1.367-.566c0-.212.084-.416.235-.566l6.634-6.633z"/>
    </symbol>
    <symbol id="icon-play-market-icon" viewBox="0 0 32 32">
      <path fill="#ea4335" d="M14.945 15.255.136 29.293c.166.533.465 1.025.874 1.438s.916.736 1.484.944a4.401 4.401 0 0 0 3.524-.225l16.663-8.586-7.736-7.608z" style="fill:var(--color1, #ea4335)"/>
      <path fill="#fbbc04" d="m29.92 12.869-7.206-3.734-8.111 6.44 8.144 7.268 7.151-3.694c.633-.3 1.164-.751 1.534-1.305s.566-1.188.566-1.835-.196-1.282-.566-1.835-.901-1.005-1.534-1.305h.022z" style="fill:var(--color2, #fbbc04)"/>
      <path fill="#4285f4" d="M.136 2.656a3.146 3.146 0 0 0-.132.918v24.8c.001.31.045.619.132.919l15.317-13.678L.136 2.656z" style="fill:var(--color3, #4285f4)"/>
      <path fill="#34a853" d="m15.055 15.974 7.658-6.839L6.072.509A4.44 4.44 0 0 0 4.008 0C2.207-.003.624 1.078.135 2.646l14.919 13.329z" style="fill:var(--color4, #34a853)"/>
    </symbol>
    <symbol id="icon-arrow" viewBox="0 0 17 32">
<path stroke-linejoin="round" stroke-linecap="round" stroke-miterlimit="4" stroke-width="4.6545" d="M14.545 27.636l-11.636-11.636 11.636-11.636"></path>
</symbol>

<symbol id="icon-twitter-x" viewBox="0 0 37 32">
<path d="M28.819 0h5.416l-11.829 13.555 13.917 18.445h-10.895l-8.534-11.189-9.765 11.189h-5.418l12.652-14.499-13.349-17.501h11.174l7.713 10.225 8.92-10.225zM26.921 28.751h3.001l-19.37-25.673h-3.218l19.586 25.673z"></path>
</symbol>

<symbol id="icon-instagram" viewBox="0 0 32 32">
<path d="M9.28 0h13.44c5.12 0 9.28 4.16 9.28 9.28v13.44c0 2.461-0.978 4.822-2.718 6.562s-4.101 2.718-6.562 2.718h-13.44c-5.12 0-9.28-4.16-9.28-9.28v-13.44c0-2.461 0.978-4.822 2.718-6.562s4.101-2.718 6.562-2.718zM8.96 3.2c-1.528 0-2.993 0.607-4.073 1.687s-1.687 2.545-1.687 4.073v14.080c0 3.184 2.576 5.76 5.76 5.76h14.080c1.528 0 2.993-0.607 4.073-1.687s1.687-2.545 1.687-4.073v-14.080c0-3.184-2.576-5.76-5.76-5.76h-14.080zM24.4 5.6c0.53 0 1.039 0.211 1.414 0.586s0.586 0.884 0.586 1.414-0.211 1.039-0.586 1.414c-0.375 0.375-0.884 0.586-1.414 0.586s-1.039-0.211-1.414-0.586c-0.375-0.375-0.586-0.884-0.586-1.414s0.211-1.039 0.586-1.414c0.375-0.375 0.884-0.586 1.414-0.586zM16 8c2.122 0 4.157 0.843 5.657 2.343s2.343 3.535 2.343 5.657c0 2.122-0.843 4.157-2.343 5.657s-3.535 2.343-5.657 2.343c-2.122 0-4.157-0.843-5.657-2.343s-2.343-3.535-2.343-5.657c0-2.122 0.843-4.157 2.343-5.657s3.535-2.343 5.657-2.343zM16 11.2c-1.273 0-2.494 0.506-3.394 1.406s-1.406 2.121-1.406 3.394c0 1.273 0.506 2.494 1.406 3.394s2.121 1.406 3.394 1.406c1.273 0 2.494-0.506 3.394-1.406s1.406-2.121 1.406-3.394c0-1.273-0.506-2.494-1.406-3.394s-2.121-1.406-3.394-1.406z"></path>
</symbol>

<symbol id="icon-facebook" viewBox="0 0 32 32">
<path d="M32 16.040c0-8.832-7.168-16-16-16s-16 7.168-16 16c0 7.744 5.504 14.192 12.8 15.68v-10.88h-3.2v-4.8h3.2v-4c0-3.088 2.512-5.6 5.6-5.6h4v4.8h-3.2c-0.88 0-1.6 0.72-1.6 1.6v3.2h4.8v4.8h-4.8v11.12c8.080-0.8 14.4-7.616 14.4-15.92z"></path>
</symbol>
  </defs>
</svg>
