<svg xmlns="http://www.w3.org/2000/svg" aria-hidden="true" style="position:absolute;width:0;height:0;overflow:hidden">
  <defs>
    <symbol id="icon-burger" viewBox="0 0 32 32">
      <path stroke-linecap="round" stroke-width="1.6" d="M8 9.6h16M8 16h16M8 22.4h16"/>
    </symbol>
    <symbol id="icon-menu-close-btn" viewBox="0 0 32 32">
      <path d="M14.869 16 8.235 9.367a.786.786 0 0 1-.174-.873.797.797 0 0 1 .434-.434.785.785 0 0 1 .613 0c.098.04.185.099.26.174l6.633 6.634 6.633-6.634a.802.802 0 0 1 1.367.566.798.798 0 0 1-.235.566l-6.634 6.633 6.634 6.633a.802.802 0 0 1-.566 1.367.798.798 0 0 1-.566-.235l-6.633-6.634-6.633 6.634a.802.802 0 0 1-1.367-.566c0-.212.084-.416.235-.566l6.634-6.633z"/>
    </symbol>
    <symbol id="icon-play-market-icon" viewBox="0 0 32 32">
      <path fill="#ea4335" d="M14.945 15.255.136 29.293c.166.533.465 1.025.874 1.438s.916.736 1.484.944a4.401 4.401 0 0 0 3.524-.225l16.663-8.586-7.736-7.608z" style="fill:var(--color1, #ea4335)"/>
      <path fill="#fbbc04" d="m29.92 12.869-7.206-3.734-8.111 6.44 8.144 7.268 7.151-3.694c.633-.3 1.164-.751 1.534-1.305s.566-1.188.566-1.835-.196-1.282-.566-1.835-.901-1.005-1.534-1.305h.022z" style="fill:var(--color2, #fbbc04)"/>
      <path fill="#4285f4" d="M.136 2.656a3.146 3.146 0 0 0-.132.918v24.8c.001.31.045.619.132.919l15.317-13.678L.136 2.656z" style="fill:var(--color3, #4285f4)"/>
      <path fill="#34a853" d="m15.055 15.974 7.658-6.839L6.072.509A4.44 4.44 0 0 0 4.008 0C2.207-.003.624 1.078.135 2.646l14.919 13.329z" style="fill:var(--color4, #34a853)"/>
    </symbol>
  </defs>
</svg>
